<svg width="82" height="81" viewBox="0 0 82 81" fill="none" xmlns="http://www.w3.org/2000/svg">
<rect x="0.596191" y="0.323242" width="80.6033" height="80.6033" rx="40.3016" fill="white"/>
<path d="M48.9521 23.2516C45.9745 25.3106 43.0285 27.9874 40.1142 31.2818C36.503 35.3682 33.6203 39.7713 31.4663 44.4912C30.2626 47.1838 29.3756 49.8922 28.8054 52.6164C28.552 53.7885 28.4253 54.6596 28.4253 55.2298C28.4253 55.8 28.4886 56.1959 28.6153 56.4177H22.4858C22.6125 55.8792 23.2302 53.9152 24.3389 50.5257C25.4793 47.1362 26.0495 44.6971 26.0495 43.2083C26.0495 41.6878 25.6852 39.6604 24.9566 37.1262C24.228 34.5921 23.2461 32.2796 22.0106 30.1889C20.8069 28.0666 19.6349 27.0054 18.4945 27.0054C17.069 27.0054 15.4218 28.2408 13.5528 30.7116C13.5211 30.7433 13.4895 30.7591 13.4578 30.7591C13.2994 30.7591 13.2202 30.6324 13.2202 30.379C13.2202 30.1256 13.2361 29.983 13.2677 29.9513C14.3764 27.7023 15.5485 26.0551 16.7839 25.0097C18.0193 23.9327 19.5873 23.3942 21.488 23.3942C23.3886 23.3942 24.7666 23.8852 25.6218 24.8672C26.4771 25.8492 27.3324 27.829 28.1877 30.8066C29.0747 33.7526 29.9458 36.952 30.8011 40.4048C31.4663 39.4862 33.2402 36.9679 36.1228 32.8498C39.0055 28.7318 41.0803 25.8491 42.3474 24.2019C42.8542 23.5367 44.153 23.2041 46.2437 23.2041C46.5922 23.2041 47.0673 23.2199 47.6692 23.2516C48.3027 23.2516 48.7304 23.2516 48.9521 23.2516Z" fill="black"/>
<path d="M32.7556 56.8166C35.7371 54.7632 38.6881 52.092 41.6087 48.8031C45.2276 44.7236 48.1185 40.3259 50.2815 35.6101C51.4903 32.9198 52.3824 30.2131 52.9578 27.4899C53.2134 26.3184 53.3417 25.4475 53.3428 24.8773C53.3439 24.3071 53.2813 23.911 53.155 23.689L59.2845 23.7006C59.1568 24.2389 58.5354 26.2017 57.4203 29.5891C56.2735 32.9764 55.6987 35.4144 55.6959 36.9033C55.693 38.4238 56.0535 40.4518 56.7772 42.9873C57.501 45.5229 58.4786 47.8372 59.7101 49.9302C60.9098 52.0549 62.0799 53.1183 63.2202 53.1204C64.6457 53.1231 66.2953 51.8908 68.1689 49.4235C68.2006 49.3919 68.2323 49.3761 68.264 49.3762C68.4224 49.3765 68.5013 49.5033 68.5009 49.7568C68.5004 50.0102 68.4843 50.1527 68.4525 50.1843C67.3396 52.4313 66.1644 54.0763 64.927 55.1193C63.6896 56.194 62.1206 56.7295 60.2199 56.7259C58.3193 56.7224 56.9423 56.2288 56.0888 55.2451C55.2354 54.2615 54.3839 52.2801 53.5342 49.3008C52.6528 46.3532 51.7878 43.1521 50.939 39.6977C50.272 40.6151 48.4934 43.1301 45.603 47.2426C42.7125 51.3552 40.6322 54.2339 39.362 55.8787C38.854 56.543 37.5546 56.8732 35.4639 56.8692C35.1154 56.8685 34.6403 56.8518 34.0385 56.819C33.4049 56.8178 32.9773 56.817 32.7556 56.8166Z" fill="black"/>
</svg>
