<svg width="79" height="57" viewBox="0 0 79 57" fill="none" xmlns="http://www.w3.org/2000/svg">
<path d="M7.30371 9.05859L11.874 0.492188H14.0303L8.31152 10.9805V17.625H6.2959V11.0742L0.588867 0.492188H2.76855L7.30371 9.05859ZM24.0029 17.625L23.6162 15.7969H23.5225C22.8818 16.6016 22.2412 17.1484 21.6006 17.4375C20.9678 17.7188 20.1748 17.8594 19.2217 17.8594C17.9482 17.8594 16.9482 17.5312 16.2217 16.875C15.5029 16.2188 15.1436 15.2852 15.1436 14.0742C15.1436 11.4805 17.2178 10.1211 21.3662 9.99609L23.5459 9.92578V9.12891C23.5459 8.12109 23.3271 7.37891 22.8896 6.90234C22.46 6.41797 21.7686 6.17578 20.8154 6.17578C19.7451 6.17578 18.5342 6.50391 17.1826 7.16016L16.585 5.67188C17.2178 5.32812 17.9092 5.05859 18.6592 4.86328C19.417 4.66797 20.1748 4.57031 20.9326 4.57031C22.4639 4.57031 23.5967 4.91016 24.3311 5.58984C25.0732 6.26953 25.4443 7.35938 25.4443 8.85938V17.625H24.0029ZM19.6084 16.2539C20.8193 16.2539 21.7686 15.9219 22.4561 15.2578C23.1514 14.5938 23.499 13.6641 23.499 12.4688V11.3086L21.5537 11.3906C20.0068 11.4453 18.8896 11.6875 18.2021 12.1172C17.5225 12.5391 17.1826 13.1992 17.1826 14.0977C17.1826 14.8008 17.3936 15.3359 17.8154 15.7031C18.2451 16.0703 18.8428 16.2539 19.6084 16.2539ZM38.2529 17.625V9.31641C38.2529 8.26953 38.0146 7.48828 37.5381 6.97266C37.0615 6.45703 36.3154 6.19922 35.2998 6.19922C33.9561 6.19922 32.9717 6.5625 32.3467 7.28906C31.7217 8.01562 31.4092 9.21484 31.4092 10.8867V17.625H29.4639V4.78125H31.0459L31.3623 6.53906H31.4561C31.8545 5.90625 32.4131 5.41797 33.1318 5.07422C33.8506 4.72266 34.6514 4.54688 35.5342 4.54688C37.0811 4.54688 38.2451 4.92188 39.0264 5.67188C39.8076 6.41406 40.1982 7.60547 40.1982 9.24609V17.625H38.2529ZM52.1045 17.625L51.7178 15.7969H51.624C50.9834 16.6016 50.3428 17.1484 49.7021 17.4375C49.0693 17.7188 48.2764 17.8594 47.3232 17.8594C46.0498 17.8594 45.0498 17.5312 44.3232 16.875C43.6045 16.2188 43.2451 15.2852 43.2451 14.0742C43.2451 11.4805 45.3193 10.1211 49.4678 9.99609L51.6475 9.92578V9.12891C51.6475 8.12109 51.4287 7.37891 50.9912 6.90234C50.5615 6.41797 49.8701 6.17578 48.917 6.17578C47.8467 6.17578 46.6357 6.50391 45.2842 7.16016L44.6865 5.67188C45.3193 5.32812 46.0107 5.05859 46.7607 4.86328C47.5186 4.66797 48.2764 4.57031 49.0342 4.57031C50.5654 4.57031 51.6982 4.91016 52.4326 5.58984C53.1748 6.26953 53.5459 7.35938 53.5459 8.85938V17.625H52.1045ZM47.71 16.2539C48.9209 16.2539 49.8701 15.9219 50.5576 15.2578C51.2529 14.5938 51.6006 13.6641 51.6006 12.4688V11.3086L49.6553 11.3906C48.1084 11.4453 46.9912 11.6875 46.3037 12.1172C45.624 12.5391 45.2842 13.1992 45.2842 14.0977C45.2842 14.8008 45.4951 15.3359 45.917 15.7031C46.3467 16.0703 46.9443 16.2539 47.71 16.2539ZM7.30371 42.0586L11.874 33.4922H14.0303L8.31152 43.9805V50.625H6.2959V44.0742L0.588867 33.4922H2.76855L7.30371 42.0586ZM27.1904 44.1914C27.1904 46.2852 26.6631 47.9219 25.6084 49.1016C24.5537 50.2734 23.0967 50.8594 21.2373 50.8594C20.0889 50.8594 19.0693 50.5898 18.1787 50.0508C17.2881 49.5117 16.6006 48.7383 16.1162 47.7305C15.6318 46.7227 15.3896 45.543 15.3896 44.1914C15.3896 42.0977 15.9131 40.4688 16.96 39.3047C18.0068 38.1328 19.46 37.5469 21.3193 37.5469C23.1162 37.5469 24.542 38.1445 25.5967 39.3398C26.6592 40.5352 27.1904 42.1523 27.1904 44.1914ZM17.4053 44.1914C17.4053 45.832 17.7334 47.082 18.3896 47.9414C19.0459 48.8008 20.0107 49.2305 21.2842 49.2305C22.5576 49.2305 23.5225 48.8047 24.1787 47.9531C24.8428 47.0938 25.1748 45.8398 25.1748 44.1914C25.1748 42.5586 24.8428 41.3203 24.1787 40.4766C23.5225 39.625 22.5498 39.1992 21.2607 39.1992C19.9873 39.1992 19.0264 39.6172 18.3779 40.4531C17.7295 41.2891 17.4053 42.5352 17.4053 44.1914ZM38.8975 47.1211C38.8975 48.3164 38.4521 49.2383 37.5615 49.8867C36.6709 50.5352 35.4209 50.8594 33.8115 50.8594C32.1084 50.8594 30.7803 50.5898 29.8271 50.0508V48.2461C30.4443 48.5586 31.1045 48.8047 31.8076 48.9844C32.5186 49.1641 33.2021 49.2539 33.8584 49.2539C34.874 49.2539 35.6553 49.0938 36.2021 48.7734C36.749 48.4453 37.0225 47.9492 37.0225 47.2852C37.0225 46.7852 36.8037 46.3594 36.3662 46.0078C35.9365 45.6484 35.0928 45.2266 33.835 44.7422C32.6396 44.2969 31.7881 43.9102 31.2803 43.582C30.7803 43.2461 30.4053 42.8672 30.1553 42.4453C29.9131 42.0234 29.792 41.5195 29.792 40.9336C29.792 39.8867 30.2178 39.0625 31.0693 38.4609C31.9209 37.8516 33.0889 37.5469 34.5732 37.5469C35.9561 37.5469 37.3076 37.8281 38.6279 38.3906L37.9365 39.9727C36.6475 39.4414 35.4795 39.1758 34.4326 39.1758C33.5107 39.1758 32.8154 39.3203 32.3467 39.6094C31.8779 39.8984 31.6436 40.2969 31.6436 40.8047C31.6436 41.1484 31.7295 41.4414 31.9014 41.6836C32.0811 41.9258 32.3662 42.1562 32.7568 42.375C33.1475 42.5938 33.8975 42.9102 35.0068 43.3242C36.5303 43.8789 37.5576 44.4375 38.0889 45C38.6279 45.5625 38.8975 46.2695 38.8975 47.1211ZM40.0342 37.7812H42.1201L44.9326 45.1055C45.5498 46.7773 45.9326 47.9844 46.0811 48.7266H46.1748C46.2764 48.3281 46.4873 47.6484 46.8076 46.6875C47.1357 45.7188 48.1982 42.75 49.9951 37.7812H52.0811L46.5615 52.4062C46.0146 53.8516 45.374 54.875 44.6396 55.4766C43.9131 56.0859 43.0186 56.3906 41.9561 56.3906C41.3623 56.3906 40.7764 56.3242 40.1982 56.1914V54.6328C40.6279 54.7266 41.1084 54.7734 41.6396 54.7734C42.9756 54.7734 43.9287 54.0234 44.499 52.5234L45.2139 50.6953L40.0342 37.7812ZM59.9561 39.293H56.6865V50.625H54.7412V39.293H52.4443V38.4141L54.7412 37.7109V36.9961C54.7412 33.8398 56.1201 32.2617 58.8779 32.2617C59.5576 32.2617 60.3545 32.3984 61.2686 32.6719L60.7646 34.2305C60.0146 33.9883 59.374 33.8672 58.8428 33.8672C58.1084 33.8672 57.5654 34.1133 57.2139 34.6055C56.8623 35.0898 56.6865 35.8711 56.6865 36.9492V37.7812H59.9561V39.293ZM64.2451 50.625H62.2998V37.7812H64.2451V50.625ZM62.1357 34.3008C62.1357 33.8555 62.2451 33.5312 62.4639 33.3281C62.6826 33.1172 62.9561 33.0117 63.2842 33.0117C63.5967 33.0117 63.8662 33.1172 64.0928 33.3281C64.3193 33.5391 64.4326 33.8633 64.4326 34.3008C64.4326 34.7383 64.3193 35.0664 64.0928 35.2852C63.8662 35.4961 63.5967 35.6016 63.2842 35.6016C62.9561 35.6016 62.6826 35.4961 62.4639 35.2852C62.2451 35.0664 62.1357 34.7383 62.1357 34.3008ZM71.1826 50.625L66.3076 37.7812H68.3936L71.1592 45.3984C71.7842 47.1797 72.1514 48.3359 72.2607 48.8672H72.3545C72.4404 48.4531 72.71 47.5977 73.1631 46.3008C73.624 44.9961 74.6514 42.1562 76.2451 37.7812H78.3311L73.4561 50.625H71.1826Z" fill="white"/>
</svg>
